<?xml version="1.0" encoding="utf-8"?>
<!-- Generator: Adobe Illustrator 23.1.0, SVG Export Plug-In . SVG Version: 6.00 Build 0)  -->
<svg version="1.1" id="Layer_1" xmlns="http://www.w3.org/2000/svg" xmlns:xlink="http://www.w3.org/1999/xlink" x="0px" y="0px"
	 viewBox="0 0 1366 768" style="enable-background:new 0 0 1366 768;" xml:space="preserve">
<style type="text/css">
	.st0{fill:#A35842;}
	.st1{fill:#542E13;}
	.st2{font-family:'Castellar';}
	.st3{font-size:203.7272px;}
</style>
<path id="left" class="st0" d="M487.85,122.21l2.04,17.87l2.3,14.81c6.38,27.32,11.74,39.06,11.74,39.06l5.87,14.81
	c30.13,64.34,76.09,88.85,76.09,88.85c34.21,17.62,48.51,13.02,48.51,13.02c18.38,16.34,32.43,54.89,32.43,54.89l5.11,18.47
	l1.79,12.43c5.11-13.02,0-48.51,0-48.51c-10.98-41.36-31.66-61.02-31.66-61.02c-30.89-3.06-41.62-12.26-41.62-12.26
	c-27.57-14.81-43.4-39.57-43.4-39.57c-23.23-30.89-26.3-48.51-26.3-48.51c-14.81-36-14.81-64.34-14.81-64.34
	c-5.87,5.87,6.89,67.91,6.89,67.91c4.6,18.89,4.6,18.89,4.6,18.89s10.72,7.15,0,0C516.7,201.87,487.85,122.21,487.85,122.21z"/>
<path id="right" class="st0" d="M877.84,122.21l-2.04,17.87l-2.3,14.81c-6.38,27.32-11.74,39.06-11.74,39.06l-5.87,14.81
	c-30.13,64.34-76.09,88.85-76.09,88.85c-34.21,17.62-48.51,13.02-48.51,13.02c-18.38,16.34-32.43,54.89-32.43,54.89L693.75,384
	l-1.79,12.43c-5.11-13.02,0-48.51,0-48.51c10.98-41.36,31.66-61.02,31.66-61.02c30.89-3.06,41.62-12.26,41.62-12.26
	c27.57-14.81,43.4-39.57,43.4-39.57c23.23-30.89,26.3-48.51,26.3-48.51c14.81-36,14.81-64.34,14.81-64.34
	c5.87,5.87-6.89,67.91-6.89,67.91c-4.6,18.89-4.6,18.89-4.6,18.89s-10.72,7.15,0,0C848.99,201.87,877.84,122.21,877.84,122.21z"/>
<path id="head" class="st1" d="M583.43,241.7l10.04,10.89l7.66,6.72l11.91,9.28l8,4.94l8.34,4.26l2.04,1.19
	c8.68-8.17,23.15-11.57,23.15-11.57l5.45-0.51c5.96-10.21,18.72-11.4,18.72-11.4c12.09-1.19,20.26,3.83,20.26,3.83
	c7.83,4.85,6.98,7.23,6.98,7.23l5.45,0.68c5.79,0.68,24.34,11.74,24.34,11.74l10.89-5.96c18.04-11.91,36.26-31.32,36.26-31.32
	c-24.85,19.74-37.96,25.7-37.96,25.7c-14.47-11.23-35.23-15.32-35.23-15.32c-7.32-9.53-15.15-10.38-15.15-10.38
	c-8.85-3.91-25.53,0-25.53,0c-6.98,3.23-12.6,10.89-12.6,10.89c-19.74,4.94-30.47,11.74-30.47,11.74l-3.74,2.55
	c-12.43-4.6-28.94-17.02-28.94-17.02L583.43,241.7z"/>
<path id="body" class="st1" d="M672.11,437.62l8.34-6.64c1.36-3.06,4.09,0,4.09,0l9.36,8.17l-2.04-12.6
	C691,403.23,691,403.23,691,403.23s2.55,8.34,0,0s-8-9.19-8-9.19c-6.3,1.36-8.51,9.19-8.51,9.19L672.11,437.62z"/>
<path id="left_foot_1" class="st1" d="M559.34,293.79v12.77c2.55,15.32,12.77,25.53,12.77,25.53c13.79,12.26,24.77,14.3,24.77,14.3
	c12.26,4.34,32.43,1.28,32.43,1.28l-10.98-2.04c-11.49-1.02-22.21-8.68-22.21-8.68c-16.85-8.43-28.09-25.79-28.09-25.79
	C562.91,304.26,559.34,293.79,559.34,293.79z"/>
<path id="right_foot_1" class="st1" d="M736.28,347.4l18.38,1.31c26.81-1.56,38.3-15.86,38.3-15.86
	c16.34-12,13.79-37.53,13.79-37.53c-9.19,19.91-27.06,35.74-27.06,35.74c-13.28,9.45-21.45,11.74-21.45,11.74
	C748.28,345.87,736.28,347.4,736.28,347.4z"/>
<path id="left_foot_2" class="st1" d="M515.68,329.53l13.53,9.45c34.72,20.43,50.81,20.17,50.81,20.17c24,4.6,38.04,2.55,38.04,2.55
	l20.43-3.83l4.85-2.3c-34.47,18.38-27.32,12.77-27.32,12.77c-16.09,5.62-29.87,4.6-29.87,4.6c-22.72-1.28-33.45-7.66-33.45-7.66
	c-21.96-8.68-30.38-23.49-30.38-23.49L515.68,329.53z"/>
<path id="_x3C_Peft_f3ath_x3E_" class="st1" d="M648.96,363.23l-11.49,11.23c-10.72,8.94-26.04,13.79-26.04,13.79
	c-18.13,8.43-32.94,8.17-32.94,8.17l-9.45,2.04l-35.74-2.04c19.15,10.21,33.19,10.98,33.19,10.98c27.32,3.06,46.72-6.38,46.72-6.38
	c19.4-9.7,30.13-25.53,30.13-25.53l5.62-10.72V363.23z"/>
<path id="r_f3" class="st1" d="M717.38,363.23l3.57,9.77c10.47,17.54,25.79,25.2,25.79,25.2c18.38,8.68,30.38,9.8,30.38,9.8
	c17.62,3.47,43.91-5.72,43.91-5.72l10.98-5.87c-22.47,5.36-59.23,0-59.23,0C741.38,384.68,717.38,363.23,717.38,363.23z"/>
<path id="rf2" class="st1" d="M721.98,354.81l12.51,4.85c37.02,3.57,51.83,0,51.83,0c30.89-7.91,58.21-24,58.21-24l6.64-6.13
	c-13.28,22.72-26.55,30.13-26.55,30.13c-14.81,12-39.57,12.26-39.57,12.26c-21.19,1.53-32.43-2.04-32.43-2.04L735,363.23
	L721.98,354.81z"/>
<path id="tail" class="st0" d="M682.4,440l-5.36,3.66l-4,3.91l-3.15,5.19l-1.7,4.6v9.87l2.64,6.72l1.28,1.96l-2.21,4.38l-1.7,5.11
	v6.77l1.45,6.26l3.19,4.72l-2.55,3.06l-2.09,5.87v4.47v5.11l2.21,5.36l1.91,2.81l-3.57,5.36l-0.55,9.32l0.81,6.38l5.23,7.91
	l4.6,4.21l3.57,2.55l6.13-3.7l2.81-2.81l4.21-6.38l2.04-6v-4.6v-3.7l-1.02-3.7l-3.57-5.23l3.83-6.26l1.4-6l-0.64-5.87l-1.15-3.32
	l-0.89-2.43l-2.68-2.79l3.83-5.51l1.53-6l-0.64-8.3l-1.66-2.68l-3.45-4.47l2.68-3.06l1.79-3.83l0.64-2.55l0.64-4.34v-3.32l-1.02-3.7
	c-5.36-8.68-8.3-10.98-8.3-10.98l-6.19-4.04H682.4z"/>
<text transform="matrix(1.04 0 0 1 551.1279 565.5742)" class="st1 st2 st3">J</text>
<text transform="matrix(1.04 0 0 1 701.0088 565.5742)" class="st1 st2 st3">S</text>
</svg>
